# xmcd
#
# Track frame offsets: 
#        150
#        35702
#        62202
#        90509
#        116514
#        134809
#        167744
#        188011
#        235271
#
# Disc length: 3409 seconds
#
# Revision: 0
# Processed by: cddbd v1.5.2PL0 Copyright (c) Steve Scherf et al.
# Submitted via: ExactAudioCopy v1.0b1
#
DISCID=7c0d4f09
DTITLE=Bondi Cigars - Down In The Valley [disk2]
DYEAR=2001
DGENRE=Blues
TTITLE0=Path Is Clear
TTITLE1=Leaving Thing
TTITLE2=Life After You
TTITLE3=Intensive Care
TTITLE4=All I Want Is Everything
TTITLE5=Don't Bite The Hand That Feeds You
TTITLE6=Cry To Me
TTITLE7=Howling At The moon
TTITLE8=Key To Your Heart
EXTD=
EXTT0=
EXTT1=
EXTT2=
EXTT3=
EXTT4=
EXTT5=
EXTT6=
EXTT7=
EXTT8=
PLAYORDER=
